<svg version="1.1" id="Layer_1" xmlns="http://www.w3.org/2000/svg" xmlns:xlink="http://www.w3.org/1999/xlink" x="0px" y="0px"
	 width="100%" viewBox="0 0 623 623" enable-background="new 0 0 623 623" xml:space="preserve">
<path fill="#28316A" opacity="1.000000" stroke="none" 
	d="
M340.000000,624.000000 
	C226.666687,624.000000 113.833374,624.000000 1.000045,624.000000 
	C1.000030,416.333405 1.000030,208.666779 1.000015,1.000129 
	C208.666565,1.000086 416.333130,1.000086 623.999756,1.000043 
	C623.999878,208.666550 623.999878,416.333099 623.999939,623.999817 
	C529.500000,624.000000 435.000000,624.000000 340.000000,624.000000 
M446.236603,124.312210 
	C432.370148,114.542763 416.739899,110.800308 400.019043,110.799957 
	C344.694855,110.798790 289.370422,110.725464 234.046768,110.898003 
	C226.944122,110.920143 219.733047,111.659805 212.764114,113.037720 
	C179.355988,119.643227 154.405426,149.955795 154.175400,183.916656 
	C154.086243,197.079193 154.272949,210.243530 154.320160,223.407089 
	C154.452835,260.398163 154.510635,297.389648 154.733505,334.380188 
	C154.855667,354.654449 162.902008,371.600952 177.616409,385.252045 
	C193.426682,399.919830 212.228943,407.185425 233.949493,407.083832 
	C291.439789,406.815002 348.933014,406.379089 406.421112,406.706421 
	C445.009949,406.926117 478.787354,375.069580 479.366364,334.309387 
	C480.062164,285.327484 480.069733,236.323257 479.450409,187.340393 
	C479.123169,161.458344 468.583588,139.927124 446.236603,124.312210 
M475.158417,464.835541 
	C476.173401,460.894897 474.388489,459.264862 470.586945,459.270599 
	C464.857666,459.279266 459.128387,459.272858 453.535431,459.272858 
	C452.799683,450.321960 452.799622,450.306580 460.456451,450.276245 
	C466.570770,450.252045 472.685333,450.271332 479.397949,450.271332 
	C479.191437,445.632660 479.012085,441.604279 478.811737,437.103851 
	C465.114349,437.103851 451.895752,437.103851 438.331421,437.103851 
	C438.331421,455.902344 438.331421,474.427124 438.331421,492.923004 
	C451.100281,492.923004 463.566223,493.018585 476.025635,492.776733 
	C477.287292,492.752228 479.330353,490.850616 479.581390,489.545166 
	C480.127350,486.706055 479.749908,483.689331 479.749908,480.090454 
	C470.785004,480.090454 462.091888,480.090454 453.487122,480.090454 
	C452.851776,471.779633 452.851776,471.783508 460.088562,471.793854 
	C465.029480,471.800934 469.970398,471.795227 475.155762,471.795227 
	C475.155762,469.188416 475.155762,467.392609 475.158417,464.835541 
M263.248108,458.665680 
	C258.721802,469.970062 254.195465,481.274475 249.483139,493.043396 
	C252.713898,493.043396 255.426346,492.685394 258.003845,493.122742 
	C262.483368,493.882782 265.379303,492.759796 266.518280,488.037445 
	C267.304779,484.776611 269.580261,483.776855 272.919952,484.027191 
	C277.061005,484.337585 281.264191,484.398163 285.398682,484.058044 
	C289.669250,483.706696 291.895050,485.430847 293.077332,489.398224 
	C293.480377,490.750702 294.792023,492.745056 295.830658,492.836731 
	C300.200714,493.222595 304.624512,492.999817 309.644775,492.999817 
	C308.971069,491.199768 308.685974,490.283447 308.294525,489.415009 
	C300.913147,473.038544 293.260498,456.777008 286.269775,440.235687 
	C283.860138,434.533997 279.627777,437.497620 276.191071,436.653473 
	C273.061584,435.884827 271.758698,437.880951 270.747620,440.426147 
	C268.415314,446.297028 265.962891,452.120178 263.248108,458.665680 
M147.263229,445.940643 
	C143.265015,457.752441 146.897659,465.234009 158.567383,469.112122 
	C161.872345,470.210419 165.362701,470.871460 168.492767,472.325592 
	C170.100754,473.072632 171.102448,475.124786 172.378113,476.587189 
	C170.655441,477.838470 168.832993,480.250702 167.229721,480.112946 
	C163.196854,479.766327 159.289368,478.144379 155.277069,477.289795 
	C153.529556,476.917633 151.224442,476.481537 149.914352,477.284576 
	C147.011917,479.063721 144.578674,481.608307 142.041763,483.766144 
	C150.941788,493.799347 168.010559,496.836182 178.895386,491.264343 
	C184.874664,488.203583 189.174240,480.609070 188.707748,474.021362 
	C188.189880,466.708069 183.828674,462.703247 177.247086,460.571167 
	C172.509796,459.036591 167.694214,457.693970 163.089966,455.829956 
	C161.781326,455.300171 161.090927,453.243317 160.117020,451.886810 
	C161.535568,450.932068 163.020966,449.088074 164.360199,449.188721 
	C168.430191,449.494598 172.422867,450.713409 176.489319,451.238434 
	C178.159561,451.454132 180.538864,451.411041 181.544815,450.419525 
	C183.476318,448.515686 184.657776,445.850922 186.668274,442.686737 
	C182.442703,440.724731 178.728729,438.535278 174.726242,437.231354 
	C163.853119,433.689178 153.405167,436.947510 147.263229,445.940643 
M338.464264,479.075287 
	C342.649902,478.550690 346.838257,478.046783 351.020630,477.497345 
	C360.516327,476.249817 367.060150,469.542084 368.102753,460.019043 
	C369.233704,449.689148 364.661591,440.694397 355.042694,438.701752 
	C344.996735,436.620605 334.479156,436.816223 324.351685,436.030792 
	C324.351685,455.955231 324.351685,474.460114 324.351685,492.726959 
	C329.131531,492.726959 334.336670,494.210358 336.998199,492.246521 
	C339.040192,490.739716 337.873718,484.885742 338.137115,480.965332 
	C338.159454,480.633423 338.204437,480.303040 338.464264,479.075287 
M200.220184,436.855682 
	C199.597504,441.205017 198.974823,445.554352 198.268524,450.487671 
	C204.574509,450.487671 209.666733,450.487671 215.514160,450.487671 
	C215.514160,464.961365 215.514160,478.987000 215.514160,493.043213 
	C220.730865,493.043213 225.171875,493.043213 230.164001,493.043213 
	C230.164001,490.931000 230.159836,489.132843 230.164703,487.334686 
	C230.193512,476.685425 230.399307,466.032410 230.173630,455.388580 
	C230.075150,450.744202 231.768097,449.124634 236.278412,449.661896 
	C239.679626,450.067047 243.134598,450.020874 246.681274,450.180817 
	C246.681274,445.480164 246.681274,441.385193 246.681274,436.674530 
	C231.317062,436.674530 216.207184,436.674530 200.220184,436.855682 
M399.248199,460.937836 
	C399.248199,452.985931 399.248199,445.034027 399.248199,436.836731 
	C393.765625,436.836731 388.894714,436.836731 383.581909,436.836731 
	C383.581909,455.716675 383.581909,474.258881 383.581909,492.915070 
	C395.904327,492.915070 407.883331,492.954681 419.861053,492.849243 
	C420.971100,492.839447 422.962189,492.007324 423.031189,491.388367 
	C423.413971,487.954468 423.855499,484.343018 423.078278,481.077667 
	C422.849152,480.115051 418.737823,479.872253 416.374390,479.676270 
	C413.731506,479.457123 411.053131,479.675995 408.390167,479.685913 
	C405.327087,479.697296 402.263916,479.688599 399.245392,479.688599 
	C399.245392,473.143097 399.245392,467.510132 399.248199,460.937836 
z"/>
<path fill="#C2B8F1" opacity="1.000000" stroke="none" 
	d="
M446.523499,124.526917 
	C468.583588,139.927124 479.123169,161.458344 479.450409,187.340393 
	C480.069733,236.323257 480.062164,285.327484 479.366364,334.309387 
	C478.787354,375.069580 445.009949,406.926117 406.421112,406.706421 
	C348.933014,406.379089 291.439789,406.815002 233.949493,407.083832 
	C212.228943,407.185425 193.426682,399.919830 177.616409,385.252045 
	C162.902008,371.600952 154.855667,354.654449 154.733505,334.380188 
	C154.510635,297.389648 154.452835,260.398163 154.320160,223.407089 
	C154.272949,210.243530 154.086243,197.079193 154.175400,183.916656 
	C154.405426,149.955795 179.355988,119.643227 212.764114,113.037720 
	C219.733047,111.659805 226.944122,110.920143 234.046768,110.898003 
	C289.370422,110.725464 344.694855,110.798790 400.019043,110.799957 
	C416.739899,110.800308 432.370148,114.542763 446.523499,124.526917 
M295.500061,393.440186 
	C332.320953,393.429230 369.141907,393.451477 405.962585,393.361145 
	C410.100128,393.350983 414.447723,393.408356 418.338654,392.239044 
	C445.117310,384.191528 463.552002,364.800446 463.829376,334.849274 
	C464.295258,284.546143 463.994995,234.235275 463.882019,183.927948 
	C463.859192,173.761780 461.310211,163.953171 455.990265,155.354797 
	C443.779114,135.618561 425.301361,126.122391 402.481964,125.852127 
	C356.670441,125.309563 310.851898,125.314911 265.035980,125.228813 
	C252.044632,125.204399 239.020630,125.147545 226.067093,125.974602 
	C196.878098,127.838257 172.796524,147.160278 169.964569,179.352631 
	C168.727737,193.412430 169.019501,207.631348 169.081116,221.775986 
	C169.245789,259.588684 169.391708,297.406128 170.204697,335.207489 
	C170.367996,342.800537 172.017822,351.060669 175.439392,357.757904 
	C187.288147,380.950226 207.009445,392.837799 233.022110,393.399689 
	C253.505508,393.842072 274.006714,393.460236 295.500061,393.440186 
z"/>
<path fill="#C2B8F1" opacity="1.000000" stroke="none" 
	d="
M475.157104,465.216187 
	C475.155762,467.392609 475.155762,469.188416 475.155762,471.795227 
	C469.970398,471.795227 465.029480,471.800934 460.088562,471.793854 
	C452.851776,471.783508 452.851776,471.779633 453.487122,480.090454 
	C462.091888,480.090454 470.785004,480.090454 479.749908,480.090454 
	C479.749908,483.689331 480.127350,486.706055 479.581390,489.545166 
	C479.330353,490.850616 477.287292,492.752228 476.025635,492.776733 
	C463.566223,493.018585 451.100281,492.923004 438.331421,492.923004 
	C438.331421,474.427124 438.331421,455.902344 438.331421,437.103851 
	C451.895752,437.103851 465.114349,437.103851 478.811737,437.103851 
	C479.012085,441.604279 479.191437,445.632660 479.397949,450.271332 
	C472.685333,450.271332 466.570770,450.252045 460.456451,450.276245 
	C452.799622,450.306580 452.799683,450.321960 453.535431,459.272858 
	C459.128387,459.272858 464.857666,459.279266 470.586945,459.270599 
	C474.388489,459.264862 476.173401,460.894897 475.157104,465.216187 
z"/>
<path fill="#C3B9F3" opacity="1.000000" stroke="none" 
	d="
M263.403656,458.314209 
	C265.962891,452.120178 268.415314,446.297028 270.747620,440.426147 
	C271.758698,437.880951 273.061584,435.884827 276.191071,436.653473 
	C279.627777,437.497620 283.860138,434.533997 286.269775,440.235687 
	C293.260498,456.777008 300.913147,473.038544 308.294525,489.415009 
	C308.685974,490.283447 308.971069,491.199768 309.644775,492.999817 
	C304.624512,492.999817 300.200714,493.222595 295.830658,492.836731 
	C294.792023,492.745056 293.480377,490.750702 293.077332,489.398224 
	C291.895050,485.430847 289.669250,483.706696 285.398682,484.058044 
	C281.264191,484.398163 277.061005,484.337585 272.919952,484.027191 
	C269.580261,483.776855 267.304779,484.776611 266.518280,488.037445 
	C265.379303,492.759796 262.483368,493.882782 258.003845,493.122742 
	C255.426346,492.685394 252.713898,493.043396 249.483139,493.043396 
	C254.195465,481.274475 258.721802,469.970062 263.403656,458.314209 
M274.819672,465.360107 
	C274.170471,467.289185 273.521271,469.218292 272.804077,471.349457 
	C277.202606,471.349457 280.734558,471.349457 285.193695,471.349457 
	C282.947601,466.380096 281.019562,462.114441 278.687744,456.955444 
	C277.176331,460.184906 276.133789,462.412506 274.819672,465.360107 
z"/>
<path fill="#C1B8F1" opacity="1.000000" stroke="none" 
	d="
M147.433350,445.606018 
	C153.405167,436.947510 163.853119,433.689178 174.726242,437.231354 
	C178.728729,438.535278 182.442703,440.724731 186.668274,442.686737 
	C184.657776,445.850922 183.476318,448.515686 181.544815,450.419525 
	C180.538864,451.411041 178.159561,451.454132 176.489319,451.238434 
	C172.422867,450.713409 168.430191,449.494598 164.360199,449.188721 
	C163.020966,449.088074 161.535568,450.932068 160.117004,451.886780 
	C161.090927,453.243317 161.781326,455.300171 163.089966,455.829956 
	C167.694214,457.693970 172.509796,459.036591 177.247086,460.571167 
	C183.828674,462.703247 188.189880,466.708069 188.707748,474.021362 
	C189.174240,480.609070 184.874664,488.203583 178.895386,491.264343 
	C168.010559,496.836182 150.941788,493.799347 142.041763,483.766144 
	C144.578674,481.608307 147.011917,479.063721 149.914352,477.284576 
	C151.224442,476.481537 153.529556,476.917633 155.277069,477.289795 
	C159.289368,478.144379 163.196854,479.766327 167.229721,480.112946 
	C168.832993,480.250702 170.655441,477.838470 172.378113,476.587189 
	C171.102448,475.124786 170.100754,473.072632 168.492767,472.325592 
	C165.362701,470.871460 161.872345,470.210419 158.567383,469.112122 
	C146.897659,465.234009 143.265015,457.752441 147.433350,445.606018 
z"/>
<path fill="#C4B9F3" opacity="1.000000" stroke="none" 
	d="
M338.351562,479.523621 
	C338.204437,480.303040 338.159454,480.633423 338.137115,480.965332 
	C337.873718,484.885742 339.040192,490.739716 336.998199,492.246521 
	C334.336670,494.210358 329.131531,492.726959 324.351685,492.726959 
	C324.351685,474.460114 324.351685,455.955231 324.351685,436.030792 
	C334.479156,436.816223 344.996735,436.620605 355.042694,438.701752 
	C364.661591,440.694397 369.233704,449.689148 368.102753,460.019043 
	C367.060150,469.542084 360.516327,476.249817 351.020630,477.497345 
	C346.838257,478.046783 342.649902,478.550690 338.351562,479.523621 
M352.339813,461.807495 
	C353.868439,458.279572 355.103302,453.946167 351.219910,452.038696 
	C347.839081,450.378113 343.338501,450.997101 339.332733,450.608765 
	C338.748444,455.358063 338.164154,460.107361 337.363953,466.611664 
	C343.305908,464.908905 347.598755,463.678711 352.339813,461.807495 
z"/>
<path fill="#C3B9F3" opacity="1.000000" stroke="none" 
	d="
M200.658752,436.765106 
	C216.207184,436.674530 231.317062,436.674530 246.681274,436.674530 
	C246.681274,441.385193 246.681274,445.480164 246.681274,450.180817 
	C243.134598,450.020874 239.679626,450.067047 236.278412,449.661896 
	C231.768097,449.124634 230.075150,450.744202 230.173630,455.388580 
	C230.399307,466.032410 230.193512,476.685425 230.164703,487.334686 
	C230.159836,489.132843 230.164001,490.931000 230.164001,493.043213 
	C225.171875,493.043213 220.730865,493.043213 215.514160,493.043213 
	C215.514160,478.987000 215.514160,464.961365 215.514160,450.487671 
	C209.666733,450.487671 204.574509,450.487671 198.268524,450.487671 
	C198.974823,445.554352 199.597504,441.205017 200.658752,436.765106 
z"/>
<path fill="#C3B9F3" opacity="1.000000" stroke="none" 
	d="
M399.246796,461.407532 
	C399.245392,467.510132 399.245392,473.143097 399.245392,479.688599 
	C402.263916,479.688599 405.327087,479.697296 408.390167,479.685913 
	C411.053131,479.675995 413.731506,479.457123 416.374390,479.676270 
	C418.737823,479.872253 422.849152,480.115051 423.078278,481.077667 
	C423.855499,484.343018 423.413971,487.954468 423.031189,491.388367 
	C422.962189,492.007324 420.971100,492.839447 419.861053,492.849243 
	C407.883331,492.954681 395.904327,492.915070 383.581909,492.915070 
	C383.581909,474.258881 383.581909,455.716675 383.581909,436.836731 
	C388.894714,436.836731 393.765625,436.836731 399.248199,436.836731 
	C399.248199,445.034027 399.248199,452.985931 399.246796,461.407532 
z"/>
<path fill="#2B336C" opacity="1.000000" stroke="none" 
	d="
M295.000031,393.442322 
	C274.006714,393.460236 253.505508,393.842072 233.022110,393.399689 
	C207.009445,392.837799 187.288147,380.950226 175.439392,357.757904 
	C172.017822,351.060669 170.367996,342.800537 170.204697,335.207489 
	C169.391708,297.406128 169.245789,259.588684 169.081116,221.775986 
	C169.019501,207.631348 168.727737,193.412430 169.964569,179.352631 
	C172.796524,147.160278 196.878098,127.838257 226.067093,125.974602 
	C239.020630,125.147545 252.044632,125.204399 265.035980,125.228813 
	C310.851898,125.314911 356.670441,125.309563 402.481964,125.852127 
	C425.301361,126.122391 443.779114,135.618561 455.990265,155.354797 
	C461.310211,163.953171 463.859192,173.761780 463.882019,183.927948 
	C463.994995,234.235275 464.295258,284.546143 463.829376,334.849274 
	C463.552002,364.800446 445.117310,384.191528 418.338654,392.239044 
	C414.447723,393.408356 410.100128,393.350983 405.962585,393.361145 
	C369.141907,393.451477 332.320953,393.429230 295.000031,393.442322 
M403.346039,178.006241 
	C410.542084,182.760086 418.042480,186.001160 427.887268,181.904434 
	C426.950806,180.229858 425.209442,179.619827 423.702179,178.647079 
	C418.666687,175.397308 413.605194,172.169235 408.755585,168.654205 
	C400.368256,162.574936 391.003510,159.019516 380.963379,156.787964 
	C364.211182,153.064636 349.512482,158.388992 335.109955,166.217087 
	C297.807251,186.491943 260.416992,206.606689 222.983521,226.639297 
	C213.181244,231.885025 204.112564,237.866806 197.313477,246.871750 
	C190.639557,255.710953 192.771820,271.605804 201.889465,277.122406 
	C210.573105,282.376404 219.469070,287.332916 228.546906,291.869446 
	C242.071960,298.628387 255.750809,298.941345 269.192932,291.313629 
	C280.779449,284.738892 292.370789,278.172455 303.934021,271.556915 
	C332.259216,255.351562 360.531891,239.053909 388.909760,222.941498 
	C396.854248,218.430771 404.787750,213.643967 413.266632,210.393204 
	C425.113770,205.851059 435.383270,213.035583 435.910889,225.687561 
	C436.307983,235.208618 433.250122,243.440369 424.351166,248.451660 
	C415.501007,253.435440 406.596039,258.322784 397.776978,263.360718 
	C355.567780,287.472961 313.432526,311.715240 271.152832,335.703033 
	C257.903870,343.219971 243.901093,344.663971 230.053055,337.401276 
	C220.207626,332.237793 210.722076,326.358948 201.279495,320.472778 
	C198.113602,318.499298 196.580994,315.348816 199.719421,311.506500 
	C201.042480,312.150177 202.226578,312.691193 203.379272,313.292419 
	C213.702774,318.677032 223.945984,324.222107 234.362457,329.420044 
	C243.790512,334.124695 253.518021,334.920563 263.236298,330.139832 
	C267.864502,327.863068 272.453186,325.483032 276.925262,322.915497 
	C318.072815,299.291626 359.179718,275.596985 400.327667,251.973785 
	C407.833496,247.664673 415.571198,243.754089 423.014526,239.343399 
	C428.206757,236.266647 430.256866,228.348953 427.596344,223.480789 
	C424.963989,218.664093 420.381622,217.732956 413.625763,220.687286 
	C412.100922,221.354095 410.580566,222.059601 409.143372,222.894028 
	C394.603577,231.335434 380.107513,239.852371 365.548981,248.261200 
	C336.423218,265.083923 307.333191,281.970795 278.069519,298.550751 
	C271.599152,302.216675 264.706665,305.565125 257.588623,307.564850 
	C245.546570,310.947784 234.282242,306.258698 224.233505,300.474670 
	C218.115662,296.953278 214.005569,297.453674 209.104584,301.198395 
	C208.051132,302.003296 206.872696,302.651245 205.723663,303.323273 
	C196.878326,308.496613 191.787216,315.233185 192.860031,326.456116 
	C193.615768,334.361938 196.486801,339.584991 203.481400,342.981812 
	C211.566574,346.908234 219.658447,350.854523 227.513763,355.213257 
	C242.455933,363.504364 257.373322,363.780273 272.254761,355.479858 
	C301.920074,338.933472 331.552673,322.326477 361.085266,305.544861 
	C384.397125,292.298096 407.770935,279.134033 430.681519,265.216003 
	C448.251862,254.542130 453.725800,237.417435 451.746979,217.905930 
	C450.777435,208.345947 446.775726,199.320084 438.608643,193.491226 
	C427.229095,185.369598 415.259155,186.978958 403.767731,193.482666 
	C360.014832,218.245132 316.341064,243.147552 272.651306,268.021515 
	C253.035889,279.189209 234.346405,276.748505 216.411804,264.172729 
	C209.315826,259.197021 209.330704,255.621628 216.848206,251.260895 
	C229.373642,243.995193 242.124969,237.115967 254.832031,230.166992 
	C285.658844,213.309021 316.670868,196.782196 347.300690,179.574463 
	C365.686005,169.245621 383.889221,168.666733 403.346039,178.006241 
z"/>
<path fill="#3C3D75" opacity="1.000000" stroke="none" 
	d="
M274.955444,465.000122 
	C276.133789,462.412506 277.176331,460.184906 278.687744,456.955444 
	C281.019562,462.114441 282.947601,466.380096 285.193695,471.349457 
	C280.734558,471.349457 277.202606,471.349457 272.804077,471.349457 
	C273.521271,469.218292 274.170471,467.289185 274.955444,465.000122 
z"/>
<path fill="#343871" opacity="1.000000" stroke="none" 
	d="
M352.115723,462.128021 
	C347.598755,463.678711 343.305908,464.908905 337.363953,466.611664 
	C338.164154,460.107361 338.748444,455.358063 339.332733,450.608765 
	C343.338501,450.997101 347.839081,450.378113 351.219910,452.038696 
	C355.103302,453.946167 353.868439,458.279572 352.115723,462.128021 
z"/>
<path fill="#C3B9F2" opacity="1.000000" stroke="none" 
	d="
M403.016296,177.825836 
	C383.889221,168.666733 365.686005,169.245621 347.300690,179.574463 
	C316.670868,196.782196 285.658844,213.309021 254.832031,230.166992 
	C242.124969,237.115967 229.373642,243.995193 216.848206,251.260895 
	C209.330704,255.621628 209.315826,259.197021 216.411804,264.172729 
	C234.346405,276.748505 253.035889,279.189209 272.651306,268.021515 
	C316.341064,243.147552 360.014832,218.245132 403.767731,193.482666 
	C415.259155,186.978958 427.229095,185.369598 438.608643,193.491226 
	C446.775726,199.320084 450.777435,208.345947 451.746979,217.905930 
	C453.725800,237.417435 448.251862,254.542130 430.681519,265.216003 
	C407.770935,279.134033 384.397125,292.298096 361.085266,305.544861 
	C331.552673,322.326477 301.920074,338.933472 272.254761,355.479858 
	C257.373322,363.780273 242.455933,363.504364 227.513763,355.213257 
	C219.658447,350.854523 211.566574,346.908234 203.481400,342.981812 
	C196.486801,339.584991 193.615768,334.361938 192.860031,326.456116 
	C191.787216,315.233185 196.878326,308.496613 205.723663,303.323273 
	C206.872696,302.651245 208.051132,302.003296 209.104584,301.198395 
	C214.005569,297.453674 218.115662,296.953278 224.233505,300.474670 
	C234.282242,306.258698 245.546570,310.947784 257.588623,307.564850 
	C264.706665,305.565125 271.599152,302.216675 278.069519,298.550751 
	C307.333191,281.970795 336.423218,265.083923 365.548981,248.261200 
	C380.107513,239.852371 394.603577,231.335434 409.143372,222.894028 
	C410.580566,222.059601 412.100922,221.354095 413.625763,220.687286 
	C420.381622,217.732956 424.963989,218.664093 427.596344,223.480789 
	C430.256866,228.348953 428.206757,236.266647 423.014526,239.343399 
	C415.571198,243.754089 407.833496,247.664673 400.327667,251.973785 
	C359.179718,275.596985 318.072815,299.291626 276.925262,322.915497 
	C272.453186,325.483032 267.864502,327.863068 263.236298,330.139832 
	C253.518021,334.920563 243.790512,334.124695 234.362457,329.420044 
	C223.945984,324.222107 213.702774,318.677032 203.379272,313.292419 
	C202.226578,312.691193 201.042480,312.150177 199.719421,311.506500 
	C196.580994,315.348816 198.113602,318.499298 201.279495,320.472778 
	C210.722076,326.358948 220.207626,332.237793 230.053055,337.401276 
	C243.901093,344.663971 257.903870,343.219971 271.152832,335.703033 
	C313.432526,311.715240 355.567780,287.472961 397.776978,263.360718 
	C406.596039,258.322784 415.501007,253.435440 424.351166,248.451660 
	C433.250122,243.440369 436.307983,235.208618 435.910889,225.687561 
	C435.383270,213.035583 425.113770,205.851059 413.266632,210.393204 
	C404.787750,213.643967 396.854248,218.430771 388.909760,222.941498 
	C360.531891,239.053909 332.259216,255.351562 303.934021,271.556915 
	C292.370789,278.172455 280.779449,284.738892 269.192932,291.313629 
	C255.750809,298.941345 242.071960,298.628387 228.546906,291.869446 
	C219.469070,287.332916 210.573105,282.376404 201.889465,277.122406 
	C192.771820,271.605804 190.639557,255.710953 197.313477,246.871750 
	C204.112564,237.866806 213.181244,231.885025 222.983521,226.639297 
	C260.416992,206.606689 297.807251,186.491943 335.109955,166.217087 
	C349.512482,158.388992 364.211182,153.064636 380.963379,156.787964 
	C391.003510,159.019516 400.368256,162.574936 408.755585,168.654205 
	C413.605194,172.169235 418.666687,175.397308 423.702179,178.647079 
	C425.209442,179.619827 426.950806,180.229858 427.887268,181.904434 
	C418.042480,186.001160 410.542084,182.760086 403.016296,177.825836 
z"/>
</svg>